<svg width="21" height="16" viewBox="0 0 21 16" fill="none" xmlns="http://www.w3.org/2000/svg">
<path d="M2.04199 16C1.49199 16 1.02116 15.8042 0.629492 15.4125C0.237826 15.0208 0.0419922 14.55 0.0419922 14V2C0.0419922 1.45 0.237826 0.979167 0.629492 0.5875C1.02116 0.195833 1.49199 0 2.04199 0H18.042C18.592 0 19.0628 0.195833 19.4545 0.5875C19.8462 0.979167 20.042 1.45 20.042 2V14C20.042 14.55 19.8462 15.0208 19.4545 15.4125C19.0628 15.8042 18.592 16 18.042 16H2.04199ZM10.042 9L2.04199 4V14H18.042V4L10.042 9ZM10.042 7L18.042 2H2.04199L10.042 7ZM2.04199 4V2V14V4Z" fill="#9B9B9B"/>
</svg>
