<svg width="22" height="19" viewBox="0 0 22 19" fill="none" xmlns="http://www.w3.org/2000/svg">
<path d="M0.0419922 11.875V9.5H8.20866V11.875H0.0419922ZM0.0419922 7.125V4.75H12.8753V7.125H0.0419922ZM0.0419922 2.375V0H12.8753V2.375H0.0419922ZM10.542 19V15.3484L16.9878 8.81719C17.1628 8.63906 17.3573 8.51042 17.5712 8.43125C17.785 8.35208 17.9989 8.3125 18.2128 8.3125C18.4462 8.3125 18.6698 8.35703 18.8837 8.44609C19.0975 8.53516 19.292 8.66875 19.467 8.84688L20.5462 9.94531C20.7017 10.1234 20.8232 10.3214 20.9107 10.5391C20.9982 10.7568 21.042 10.9745 21.042 11.1922C21.042 11.4099 21.0031 11.6326 20.9253 11.8602C20.8475 12.0878 20.7212 12.2906 20.5462 12.4688L14.1295 19H10.542ZM12.292 17.2188H13.4003L16.9295 13.5969L16.4045 13.0328L15.8503 12.4984L12.292 16.0906V17.2188ZM16.4045 13.0328L15.8503 12.4984L16.9295 13.5969L16.4045 13.0328Z" fill="#9B9B9B"/>
</svg>
