<svg width="17" height="16" viewBox="0 0 17 16" fill="none" xmlns="http://www.w3.org/2000/svg">
<path d="M8.04199 8C6.94199 8 6.00033 7.60833 5.21699 6.825C4.43366 6.04167 4.04199 5.1 4.04199 4C4.04199 2.9 4.43366 1.95833 5.21699 1.175C6.00033 0.391667 6.94199 0 8.04199 0C9.14199 0 10.0837 0.391667 10.867 1.175C11.6503 1.95833 12.042 2.9 12.042 4C12.042 5.1 11.6503 6.04167 10.867 6.825C10.0837 7.60833 9.14199 8 8.04199 8ZM0.0419922 16V13.2C0.0419922 12.6333 0.187826 12.1125 0.479492 11.6375C0.771159 11.1625 1.15866 10.8 1.64199 10.55C2.67533 10.0333 3.72533 9.64583 4.79199 9.3875C5.85866 9.12917 6.94199 9 8.04199 9C9.14199 9 10.2253 9.12917 11.292 9.3875C12.3587 9.64583 13.4087 10.0333 14.442 10.55C14.9253 10.8 15.3128 11.1625 15.6045 11.6375C15.8962 12.1125 16.042 12.6333 16.042 13.2V16H0.0419922ZM2.04199 14H14.042V13.2C14.042 13.0167 13.9962 12.85 13.9045 12.7C13.8128 12.55 13.692 12.4333 13.542 12.35C12.642 11.9 11.7337 11.5625 10.817 11.3375C9.90033 11.1125 8.97533 11 8.04199 11C7.10866 11 6.18366 11.1125 5.26699 11.3375C4.35033 11.5625 3.44199 11.9 2.54199 12.35C2.39199 12.4333 2.27116 12.55 2.17949 12.7C2.08783 12.85 2.04199 13.0167 2.04199 13.2V14ZM8.04199 6C8.59199 6 9.06283 5.80417 9.45449 5.4125C9.84616 5.02083 10.042 4.55 10.042 4C10.042 3.45 9.84616 2.97917 9.45449 2.5875C9.06283 2.19583 8.59199 2 8.04199 2C7.49199 2 7.02116 2.19583 6.62949 2.5875C6.23783 2.97917 6.04199 3.45 6.04199 4C6.04199 4.55 6.23783 5.02083 6.62949 5.4125C7.02116 5.80417 7.49199 6 8.04199 6Z" fill="#9B9B9B"/>
</svg>
