<svg width="19" height="18" viewBox="0 0 19 18" fill="none" xmlns="http://www.w3.org/2000/svg">
<path d="M16.992 18C14.9087 18 12.8503 17.5458 10.817 16.6375C8.78366 15.7292 6.93366 14.4417 5.26699 12.775C3.60033 11.1083 2.31283 9.25833 1.40449 7.225C0.496159 5.19167 0.0419922 3.13333 0.0419922 1.05C0.0419922 0.75 0.141992 0.5 0.341992 0.3C0.541992 0.1 0.791992 0 1.09199 0H5.14199C5.37533 0 5.58366 0.0791667 5.76699 0.2375C5.95033 0.395833 6.05866 0.583333 6.09199 0.8L6.74199 4.3C6.77533 4.56667 6.76699 4.79167 6.71699 4.975C6.66699 5.15833 6.57533 5.31667 6.44199 5.45L4.01699 7.9C4.35033 8.51667 4.74616 9.1125 5.20449 9.6875C5.66283 10.2625 6.16699 10.8167 6.71699 11.35C7.23366 11.8667 7.77533 12.3458 8.34199 12.7875C8.90866 13.2292 9.50866 13.6333 10.142 14L12.492 11.65C12.642 11.5 12.8378 11.3875 13.0795 11.3125C13.3212 11.2375 13.5587 11.2167 13.792 11.25L17.242 11.95C17.4753 12.0167 17.667 12.1375 17.817 12.3125C17.967 12.4875 18.042 12.6833 18.042 12.9V16.95C18.042 17.25 17.942 17.5 17.742 17.7C17.542 17.9 17.292 18 16.992 18ZM3.06699 6L4.71699 4.35L4.29199 2H2.06699C2.15033 2.68333 2.26699 3.35833 2.41699 4.025C2.56699 4.69167 2.78366 5.35 3.06699 6ZM12.017 14.95C12.667 15.2333 13.3295 15.4583 14.0045 15.625C14.6795 15.7917 15.3587 15.9 16.042 15.95V13.75L13.692 13.275L12.017 14.95Z" fill="#9B9B9B"/>
</svg>
